<?xml version="1.0" encoding="UTF-8"?>
<svg id="Camada_1" xmlns="http://www.w3.org/2000/svg" viewBox="0 0 41.88 43">
  <defs>
    <style>
      .cls-1 {
        fill: #bfbfc2;
      }

      .cls-2 {
        fill: #640c00;
      }

      .cls-3 {
        fill: #afafb2;
      }

      .cls-4 {
        fill: #fff;
      }
    </style>
  </defs>
  <rect class="cls-2" width="41.88" height="43"/>
  <path class="cls-1" d="M8.89,13.22l-.25.63-.25.63-.5,1.25c-.17.42-.32.84-.47,1.26-.07.21-.14.42-.2.64-.06.22-.11.43-.14.66-.02-.45.09-.9.21-1.34.12-.44.27-.86.44-1.28.17-.42.35-.84.54-1.24.2-.41.4-.81.63-1.2"/>
  <path class="cls-1" d="M8.84,27.94c-.4-.66-.73-1.35-1.02-2.06-.29-.71-.52-1.44-.69-2.19-.17-.75-.27-1.51-.31-2.27-.02-.38-.04-.76-.04-1.15,0-.38.02-.77.04-1.14l.04-.05,1.06-.27.53-.14c.17-.05.35-.1.52-.16-.33.14-.68.25-1.03.36-.35.11-.7.21-1.05.31l.04-.05c-.02.76,0,1.52.05,2.28.03.38.07.76.12,1.13.05.38.11.75.19,1.12.16.74.38,1.47.64,2.19.26.71.56,1.42.9,2.1"/>
  <path class="cls-1" d="M16.5,34.05c-.74-.24-1.46-.55-2.15-.92-.69-.36-1.35-.79-1.97-1.26-.63-.46-1.21-.98-1.77-1.52-.27-.27-.54-.56-.79-.86-.25-.3-.49-.61-.68-.95l.02-.06,1.52-.88c.51-.3,1.01-.59,1.51-.9-.49.32-.99.63-1.49.94l-1.5.91.02-.06c.41.64.96,1.19,1.5,1.74.55.54,1.14,1.03,1.75,1.5.61.47,1.26.89,1.93,1.28.67.39,1.37.73,2.09,1.03"/>
  <path class="cls-1" d="M10.21,11.58l-.2.76c-.07.25-.14.5-.2.76-.12.51-.23,1.02-.28,1.53-.06.51-.05,1.03-.02,1.55.01.26.03.52.06.78.02.26.04.52.05.78-.1-.52-.19-1.03-.25-1.55-.06-.52-.07-1.05-.02-1.58.06-.53.17-1.04.32-1.55.15-.5.33-1,.53-1.48"/>
  <path class="cls-1" d="M12.6,25.7c-.39-.53-.75-1.1-1.06-1.68-.31-.58-.6-1.18-.84-1.8-.24-.62-.45-1.25-.63-1.88-.17-.64-.31-1.29-.4-1.95l.06-.08,1.81-.51c.6-.17,1.21-.33,1.81-.51-.59.22-1.18.42-1.78.61-.6.19-1.19.38-1.8.56l.06-.08c.09.64.25,1.29.42,1.92.17.63.37,1.26.61,1.88.24.61.49,1.22.78,1.81.29.59.61,1.17.97,1.73"/>
  <path class="cls-1" d="M17.86,31.66c-.5-.35-.98-.74-1.43-1.14-.46-.4-.89-.84-1.31-1.29-.42-.45-.8-.92-1.16-1.41-.36-.49-.69-1-.98-1.55l.02-.06,1.58-.94,1.57-.95c-.51.34-1.03.67-1.54.99-.52.33-1.03.65-1.55.97l.02-.06c.3.52.66,1.01,1.02,1.49.37.48.76.94,1.16,1.39.4.45.83.88,1.26,1.31.44.42.89.83,1.35,1.23"/>
  <path class="cls-1" d="M21.22,34.87c-.35.03-.69.04-1.04.03-.35,0-.69-.04-1.04-.09-.34-.04-.69-.11-1.02-.19-.34-.08-.67-.19-.99-.32l-.02-.06c.13-.25.27-.5.41-.75.14-.25.28-.5.44-.73-.14.25-.27.5-.4.76-.13.26-.25.51-.37.77l-.02-.06c.32.1.66.17,1,.24.34.07.67.13,1.01.18.34.05.68.09,1.02.13.34.03.68.07,1.03.1"/>
  <path class="cls-1" d="M22.38,34.56c-.36-.15-.71-.32-1.06-.5-.35-.17-.69-.36-1.03-.55-.34-.19-.67-.4-.99-.61-.32-.22-.64-.44-.92-.72v-.06c.27-.41.55-.82.85-1.21.3-.39.61-.78.98-1.11-.18.17-.34.36-.49.55-.15.19-.3.39-.44.59-.28.4-.56.81-.82,1.23v-.07c.13.12.29.23.45.34.16.11.32.22.48.32.32.21.66.41.99.61l1,.59c.34.2.67.39,1,.6"/>
  <path class="cls-1" d="M13.91,16.4c-.11-.38-.21-.77-.3-1.15-.09-.39-.18-.77-.26-1.16-.08-.39-.14-.78-.2-1.18-.05-.4-.1-.79-.1-1.2l.07-.07c.46-.07.93-.15,1.38-.25.46-.1.92-.21,1.36-.38-.21.11-.43.19-.65.27s-.45.15-.68.21c-.46.12-.92.23-1.38.31l.07-.07c0,.38.06.78.11,1.17.05.39.12.78.18,1.17l.2,1.17c.07.39.14.78.2,1.17"/>
  <path class="cls-1" d="M16.48,23.34c-.28-.49-.54-.98-.79-1.48-.24-.51-.48-1.01-.69-1.53-.21-.52-.41-1.04-.58-1.58-.17-.53-.31-1.07-.4-1.64l.05-.08,1-.39c.34-.13.67-.26,1-.39l.99-.41c.33-.14.66-.28.97-.46-.3.2-.62.36-.94.52-.32.16-.65.31-.98.45-.33.15-.66.29-.99.42l-1,.4.05-.08c.09.54.25,1.08.41,1.61.16.53.35,1.06.55,1.58.2.52.41,1.04.64,1.55.23.51.46,1.02.7,1.52"/>
  <path class="cls-1" d="M20.25,28.75c-.36-.33-.71-.69-1.04-1.06-.33-.37-.64-.75-.93-1.15-.15-.2-.29-.4-.43-.6-.14-.21-.27-.41-.4-.62-.26-.42-.5-.85-.7-1.3l.02-.07,2.07-1.22,1.03-.61c.34-.21.69-.41,1.02-.63-.66.46-1.34.88-2.02,1.3-.68.43-1.36.84-2.05,1.26l.02-.07c.23.43.48.85.74,1.26.13.21.27.41.4.61.14.2.27.41.42.61.28.4.58.79.89,1.17.31.38.62.76.95,1.13"/>
  <path class="cls-1" d="M23.82,32.46c-.3-.21-.59-.45-.86-.7-.14-.12-.27-.25-.4-.38l-.39-.39c-.26-.27-.51-.53-.75-.81-.24-.28-.49-.55-.71-.84v-.09c.44-.42.89-.81,1.36-1.18.48-.36.98-.71,1.52-.97-.53.29-1.01.65-1.47,1.03-.46.38-.9.79-1.32,1.21v-.09s.74.82.74.82l.74.81.75.8c.26.26.51.52.78.78"/>
  <path class="cls-1" d="M18.37,14.46c-.35-.6-.67-1.21-1-1.83-.32-.61-.64-1.23-.94-1.85l.03-.11c.44-.31.87-.64,1.29-.97.21-.17.41-.35.61-.53.2-.18.39-.38.53-.6-.11.25-.3.45-.47.65-.18.2-.38.39-.58.57-.4.36-.83.7-1.27,1.02l.03-.11c.32.62.62,1.24.92,1.86.3.63.59,1.25.87,1.89"/>
  <path class="cls-1" d="M21.32,20.45c-.27-.42-.51-.86-.75-1.3-.24-.44-.47-.88-.69-1.32-.23-.44-.45-.89-.66-1.34-.22-.45-.43-.9-.63-1.35l.02-.07c.73-.44,1.45-.88,2.17-1.33.36-.23.72-.46,1.07-.69.35-.24.71-.47,1.02-.76-.15.15-.32.28-.48.41-.17.13-.34.25-.51.38-.35.24-.7.48-1.06.72-.71.47-1.43.93-2.15,1.37l.02-.07c.23.44.46.88.69,1.33.23.45.45.89.67,1.34.22.45.44.89.65,1.34l.64,1.35Z"/>
  <path class="cls-1" d="M23.99,26.07c-.22-.4-.44-.81-.64-1.22-.21-.41-.42-.82-.61-1.23-.2-.41-.4-.82-.59-1.24-.19-.41-.39-.83-.57-1.25l.02-.08,2.6-1.55c.87-.51,1.73-1.03,2.59-1.56-.84.56-1.69,1.09-2.55,1.62-.85.53-1.71,1.06-2.57,1.59l.02-.08c.21.41.41.82.61,1.23.21.41.4.82.59,1.24.2.41.39.83.57,1.25.19.42.37.84.54,1.26"/>
  <path class="cls-1" d="M26.26,30.7c-.2-.31-.38-.63-.55-.96-.17-.33-.34-.65-.49-.99-.16-.33-.31-.67-.46-1l-.43-1.01.04-.1c.73-.35,1.47-.65,2.23-.92.38-.14.76-.26,1.15-.36.39-.1.79-.18,1.19-.2-.4.04-.79.14-1.17.26-.38.12-.76.25-1.13.39-.75.28-1.48.62-2.19.96l.04-.1.45,1,.44,1.01.44,1.01c.15.33.3.67.46,1"/>
  <path class="cls-1" d="M22.98,11.36c-.3-.29-.63-.55-.93-.82-.31-.27-.63-.55-.94-.82l-.92-.84c-.31-.28-.61-.56-.91-.85v-.08c.11-.22.24-.44.36-.67.06-.11.12-.22.18-.34.06-.11.11-.23.16-.35-.06.25-.17.48-.27.72-.1.23-.22.46-.33.69v-.08c.3.27.61.54.92.82.31.28.61.56.92.84.3.28.6.57.9.86.15.15.3.29.44.44.14.15.29.29.42.46"/>
  <path class="cls-1" d="M27.15,16.94c-.27-.45-.55-.89-.83-1.33-.29-.43-.58-.87-.89-1.29-.31-.42-.62-.84-.94-1.25-.16-.21-.33-.41-.5-.61-.17-.2-.34-.4-.51-.59v-.08c.41-.39.82-.79,1.22-1.19.2-.2.4-.4.6-.61.2-.21.39-.41.57-.63-.34.46-.73.87-1.12,1.29-.39.42-.79.82-1.19,1.22v-.08c.19.19.37.38.55.58.17.2.34.4.51.6.34.4.65.82.95,1.26.3.43.59.87.85,1.32.27.45.51.91.73,1.39"/>
  <path class="cls-1" d="M29.57,24.4c-.21-1.17-.49-2.32-.83-3.45-.18-.56-.37-1.12-.58-1.68-.1-.28-.22-.55-.33-.83-.11-.27-.23-.55-.36-.81l.02-.07,1.67-.99.83-.51c.27-.17.55-.34.81-.53-.26.2-.53.38-.79.55l-.81.53c-.54.35-1.09.69-1.64,1.03l.02-.07c.28.53.53,1.07.75,1.63.22.55.42,1.12.58,1.69.34,1.14.58,2.32.67,3.5"/>
  <path class="cls-1" d="M32.78,24.77c-.51.02-1.02.09-1.52.15-.25.03-.51.07-.76.11l-.76.12.07-.09c.06.41.13.81.19,1.22.05.41.07.83.08,1.24.02.41.02.83.01,1.24,0,.41-.01.82-.03,1.24l-.02-.02c.49.05.98.1,1.47.17-.25-.03-.49-.05-.74-.07l-.74-.06-.02-.02-.04-1.23-.05-1.23c-.02-.41-.05-.82-.1-1.22-.05-.41-.11-.81-.17-1.22l.07-.09c.25-.04.51-.08.76-.1.26-.03.51-.05.77-.08s.51-.04.77-.05c.26,0,.51-.01.77,0"/>
  <path class="cls-1" d="M25.8,8.37c-.24-.16-.49-.28-.74-.41l-.75-.4c-.5-.27-1-.53-1.48-.84.54.19,1.06.43,1.56.69.25.14.5.28.74.43.24.16.48.32.67.53"/>
  <path class="cls-1" d="M31.12,14.66c-.33-.54-.67-1.08-1.03-1.6-.36-.52-.73-1.03-1.13-1.52-.4-.49-.81-.97-1.25-1.43-.22-.23-.44-.46-.67-.67l-.35-.32-.18-.16-.09-.08-.04-.04-.02-.02h-.01s0-.01,0-.01h0s.03-.06.02-.03h0s-.02,0-.02,0c.15-.16.3-.32.45-.48.07-.08.14-.17.21-.26.06-.09.13-.18.17-.28-.04.1-.1.2-.16.29-.06.09-.13.18-.2.26-.14.17-.28.34-.43.5h-.02s0,0,0,0c-.01.03.03-.03.02-.03h0s0,0,0,0h.01s.02.03.02.03l.05.04.1.07.19.14c.13.1.25.2.37.3.24.21.48.42.71.64.45.45.88.92,1.28,1.42.39.5.77,1.02,1.1,1.56.34.54.65,1.09.92,1.67"/>
  <path class="cls-1" d="M33.81,13.78c-.38.26-.77.5-1.16.75l-1.17.74.02-.08c.4.66.7,1.38.96,2.1.26.72.47,1.46.63,2.21.16.75.29,1.5.36,2.26.08.76.11,1.52.11,2.29h-.02s.93,0,.93,0h.46c.15.02.31.02.46.05-.15-.03-.31-.02-.46-.03h-.46s-.93,0-.93,0l-.02-.02c-.02-.38-.04-.76-.08-1.14-.03-.38-.07-.76-.12-1.13-.1-.75-.23-1.5-.4-2.24-.08-.37-.18-.74-.28-1.1-.1-.37-.21-.73-.34-1.09-.25-.72-.54-1.42-.91-2.08l.02-.09,1.2-.7,1.2-.69Z"/>
  <path class="cls-1" d="M33.46,24.66c.04.42.01.85-.02,1.27-.04.42-.11.84-.2,1.26-.09.41-.2.83-.33,1.23-.07.2-.14.4-.21.6-.08.2-.16.39-.25.59l.17-.61c.06-.2.11-.41.16-.61.1-.41.21-.82.29-1.23.09-.41.17-.82.24-1.24.03-.21.07-.41.09-.62.03-.21.05-.42.07-.63"/>
  <path class="cls-1" d="M23.16,34.76c.31-.74.79-1.41,1.35-1.99.56-.58,1.24-1.07,1.98-1.42.75-.35,1.55-.56,2.37-.63.41-.03.82-.04,1.23-.01.41.03.81.09,1.21.17-.81-.1-1.62-.12-2.42-.03-.8.1-1.59.3-2.31.65-.73.33-1.39.81-1.96,1.36-.29.28-.55.58-.8.89-.25.32-.47.65-.65,1"/>
  <path class="cls-1" d="M19.06,6.72c-.77.16-1.54.35-2.28.59-.74.25-1.48.53-2.17.88-.7.35-1.38.74-2.01,1.19-.63.46-1.24.95-1.74,1.53v-.04h.03s.03.02.05.03c.03.01.07.02.11.03.07.02.15.03.23.04.15.02.3.03.46.04.31.02.61.03.92.04-.31,0-.62.01-.92,0-.15,0-.31-.01-.46-.03-.08,0-.15-.02-.23-.03-.04,0-.08-.02-.12-.03-.02,0-.04-.01-.06-.02h-.03s-.02-.02-.04-.05v-.04c.24-.31.52-.59.81-.86.29-.27.59-.52.91-.75.64-.46,1.31-.88,2.03-1.22.71-.34,1.45-.63,2.21-.85.76-.22,1.54-.38,2.32-.47"/>
  <path class="cls-4" d="M12.42,35.01c-.27.28-.53.56-.78.85-.12.14-.25.29-.36.44-.11.15-.22.31-.28.46-.03.07-.04.16-.03.17,0,0,0,0,.02,0,.02,0,.05.01.09.01.15,0,.34-.04.51-.1.36-.11.71-.26,1.06-.41.7-.31,1.39-.65,2.07-1.01.68-.36,1.36-.72,2.03-1.09,1.34-.75,2.68-1.51,4.01-2.3,1.33-.78,2.65-1.57,3.95-2.39,1.31-.8,2.61-1.63,3.9-2.47,1.29-.83,2.56-1.7,3.81-2.58.63-.44,1.24-.9,1.84-1.37.6-.47,1.19-.95,1.74-1.47.27-.26.54-.53.77-.82.11-.14.22-.29.31-.45.08-.15.15-.32.16-.47.01-.16-.05-.3-.19-.4-.13-.1-.31-.16-.49-.21-.37-.09-.76-.1-1.15-.1.39-.05.78-.08,1.18-.04.2.03.4.07.59.18.09.06.18.14.24.24.06.1.09.22.1.33.01.23-.06.43-.14.62-.08.19-.18.36-.29.53-.22.33-.47.64-.73.93-1.06,1.15-2.25,2.16-3.46,3.12-.3.24-.61.48-.92.71-.31.23-.62.46-.94.69-.63.45-1.26.9-1.9,1.34-1.28.87-2.58,1.71-3.9,2.53-1.32.81-2.65,1.6-4.01,2.36-1.36.75-2.72,1.49-4.12,2.17-1.4.69-2.81,1.34-4.29,1.87-.37.13-.75.25-1.14.33-.2.04-.4.08-.63.06-.06,0-.12-.02-.2-.05-.07-.03-.15-.1-.18-.19-.03-.09-.01-.16,0-.22.02-.06.04-.11.07-.16.1-.19.23-.34.37-.48.13-.15.27-.28.41-.41.29-.26.58-.51.89-.75"/>
  <path class="cls-3" d="M5.75,17.01c-.22.33-.45.67-.66,1.01-.21.34-.41.69-.58,1.04-.17.35-.33.72-.39,1.08-.03.18-.02.36.03.48.06.12.16.2.31.24.15.04.33.05.52.04.19-.01.38-.04.57-.08.38-.08.76-.2,1.14-.33.75-.26,1.5-.57,2.23-.91,1.46-.68,2.9-1.42,4.31-2.21,1.42-.78,2.82-1.59,4.2-2.43,1.39-.83,2.76-1.69,4.11-2.57,1.36-.87,2.69-1.78,4.01-2.71.66-.47,1.3-.95,1.93-1.45.62-.5,1.25-1.01,1.76-1.59.13-.15.24-.29.33-.45.04-.07.07-.15.08-.21,0-.07,0-.09-.02-.12-.02-.03-.09-.07-.17-.09-.08-.02-.17-.03-.27-.03-.19,0-.39,0-.59.03-.4.04-.8.12-1.19.21-.4.08-.79.18-1.19.29.76-.3,1.53-.58,2.34-.76.2-.04.41-.08.63-.08.11,0,.22,0,.34.02.12.02.25.05.37.16.06.05.11.13.13.21.02.08.03.15.02.22-.01.14-.05.25-.1.36-.09.21-.21.39-.34.56-.25.34-.54.64-.82.93-.29.29-.59.57-.89.85-.61.55-1.24,1.06-1.88,1.57-.64.51-1.29,1-1.95,1.47-.66.48-1.33.94-2,1.4-1.35.91-2.73,1.78-4.12,2.63-2.8,1.66-5.67,3.25-8.71,4.5-.76.31-1.54.6-2.34.82-.4.11-.81.21-1.23.27-.21.03-.43.05-.65.05-.22,0-.45-.02-.69-.11-.12-.04-.24-.11-.34-.2-.1-.09-.18-.22-.22-.34-.08-.25-.05-.49,0-.7.11-.42.31-.79.52-1.14.43-.69.94-1.32,1.48-1.93"/>
  <path class="cls-3" d="M6,26.65c-.26.38-.51.76-.75,1.15-.23.39-.46.79-.62,1.2-.08.21-.15.42-.18.62-.03.2-.01.41.08.52.09.12.27.17.47.19.2.01.42-.01.63-.05.43-.08.87-.21,1.29-.35.43-.15.85-.32,1.27-.5.84-.36,1.67-.75,2.48-1.17,1.63-.84,3.24-1.72,4.83-2.64,1.59-.92,3.17-1.86,4.72-2.84,1.56-.96,3.11-1.95,4.64-2.97,1.54-1,3.04-2.05,4.54-3.11.75-.53,1.48-1.08,2.2-1.64.72-.56,1.43-1.14,2.08-1.76.32-.31.64-.64.87-.99.06-.09.1-.18.13-.27.03-.09.03-.16.01-.2-.02-.04-.08-.09-.18-.11-.09-.03-.2-.04-.31-.04-.44-.01-.9.07-1.35.16-.45.09-.9.21-1.35.32.43-.17.87-.33,1.31-.46.45-.13.9-.26,1.39-.29.12,0,.25,0,.38.02.07.01.14.04.21.07.07.04.14.1.18.17.05.08.07.16.07.24,0,.08,0,.15-.02.22-.03.13-.09.25-.14.36-.24.43-.54.79-.85,1.13-1.28,1.36-2.71,2.53-4.16,3.67-.73.57-1.47,1.12-2.21,1.66-.75.54-1.5,1.07-2.26,1.6-1.52,1.04-3.07,2.05-4.64,3.03-3.15,1.93-6.36,3.78-9.74,5.34-.85.38-1.7.76-2.58,1.08-.44.16-.88.31-1.34.44-.45.13-.92.24-1.4.3-.24.02-.49.03-.75,0-.13-.02-.26-.05-.39-.11-.13-.06-.26-.16-.34-.29-.09-.13-.12-.27-.13-.41,0-.14.01-.26.04-.38.06-.24.15-.46.26-.67.43-.83,1.02-1.54,1.62-2.24"/>
</svg>